<?xml version="1.0" encoding="utf-8" ?>	<!-- Generator: Assembly 2.4 - http://assemblyapp.co -->	<svg version="1.1" xmlns="http://www.w3.org/2000/svg" xmlns:xlink="http://www.w3.org/1999/xlink" width="64.00" height="64.00" viewBox="0 0 64.0 64.0">		<g id="document" transform="scale(0.015625 0.015625) translate(2048.0 2048.0)">			<path d="M-647.599,645.862 L-19.2942,645.862 C286.615,645.862 436.822,449.861 436.822,-19.0778 C436.822,-398.259 345.232,-695.009 -19.2942,-695.009 L-647.599,-695.009 L-647.599,645.862 Z M-292.231,345.449 L-292.231,-394.595 L-55.93,-394.595 C30.1642,-394.595 81.4543,-352.464 81.4543,-20.9095 C81.4543,237.373 48.4821,345.449 -55.93,345.449 L-292.231,345.449 Z " fill="#bbcad5" fill-opacity="1.00" />			<path d="M769.884,-761.767 L-458.772,-761.767 L-458.772,-1253.23 L769.884,-1253.23 C1448.1,-1253.23 1273.78,-702.791 1273.78,-24.5731 C1273.78,653.645 1448.1,1204.08 769.884,1204.08 L-458.772,1204.08 L-458.772,712.621 L769.884,712.621 C1177.8,712.621 688.93,383.341 688.93,-24.5731 C688.93,-432.487 1177.8,-761.767 769.884,-761.767 Z " fill="#008c9f" fill-opacity="1.00" />			<path d="M-569.169,-756.608 L-569.169,-1253.23 L-1011.68,-1253.23 L-1011.68,-756.608 L-569.169,-756.608 Z " fill="#ffe875" fill-opacity="1.00" />			<path d="M-569.169,1204.08 L-569.169,707.462 L-1011.68,707.462 L-1011.68,1204.08 L-569.169,1204.08 Z " fill="#ffe875" fill-opacity="1.00" />		</g>	</svg>